<svg width="600" height="700" xmlns="http://www.w3.org/2000/svg" xmlns:xlink="http://www.w3.org/1999/xlink" xml:space="preserve" version="1.1">
 <g>
  <title>Layer 1</title>
  <g id="svg_3">
   <path class="st0" d="m399,525.4l-43.1,0c-16.9,0 -30.6,-13.7 -30.6,-30.6l0,-289.6c0,-16.9 13.7,-30.6 30.6,-30.6l43.1,0c16.9,0 30.6,13.7 30.6,30.6l0,289.7c0,16.8 -13.7,30.5 -30.6,30.5z" fill="#FFFFFF" stroke="#FFFFFF" stroke-miterlimit="10" id="svg_1"/>
   <path class="st0" d="m244.1,525.4l-43.1,0c-16.9,0 -30.6,-13.7 -30.6,-30.6l0,-289.6c0,-16.9 13.7,-30.6 30.6,-30.6l43.1,0c16.9,0 30.6,13.7 30.6,30.6l0,289.7c0,16.8 -13.7,30.5 -30.6,30.5z" fill="#FFFFFF" stroke="#FFFFFF" stroke-miterlimit="10" id="svg_2"/>
  </g>
  <g id="Layer_2">
   <g id="svg_2">
    <image x="-664" y="-190" id="svg_3" transform="matrix(1 0 0 1 278 -204)" xlink:href="C3B131ED.png" height="1488" width="1372"/>
   </g>
  </g>
 </g>

</svg>