<svg width="600" height="700" xmlns="http://www.w3.org/2000/svg" xmlns:xlink="http://www.w3.org/1999/xlink" xml:space="preserve" version="1.1">

 <g>
  <title>Layer 1</title>
  <g display="none" class="st0" id="Layer_1">
   <polygon id="svg_1" stroke-miterlimit="10" stroke="#000000" display="inline" points="1217.4000244140625,482.6999969482422 1034.199951171875,552.9000091552734 964,851.6999969482422 893.7999877929688,552.9000091552734 710.5999755859375,482.6999969482422 893.7999877929688,412.49998474121094 964,229.29998779296875 1034.199951171875,412.49998474121094 " class="st1"/>
  </g>
  <g id="Layer_2">
   <g id="svg_2">
    <image x="-664" y="-190.5" id="svg_3" transform="matrix(1 0 0 1 277 -205)" xlink:href="D7887273.png" height="1491" width="1374"/>
    <g id="svg_4">
     <polygon id="svg_5" points="553.4000244140625,291.70001220703125 370.199951171875,361.9000244140625 300,660.7000122070312 229.79998779296875,361.9000244140625 46.5999755859375,291.70001220703125 229.79998779296875,221.5 300,38.30000305175781 370.199951171875,221.5 "/>
     <polygon id="svg_6" stroke-miterlimit="10" stroke="#000000" fill="none" points="553.4000244140625,291.70001220703125 370.199951171875,361.9000244140625 300,660.7000122070312 229.79998779296875,361.9000244140625 46.5999755859375,291.70001220703125 229.79998779296875,221.5 300,38.30000305175781 370.199951171875,221.5 " class="st2"/>
    </g>
   </g>
  </g>
 </g>
</svg>