<svg width="600" height="700" xmlns="http://www.w3.org/2000/svg" xmlns:xlink="http://www.w3.org/1999/xlink" version="1.1" xml:space="preserve">
 <g>
  <title>Layer 1</title>
  <g id="svg_3">
   <path class="st0" d="m399,525.39998l-43.1,0c-16.9,0 -30.6,-13.7 -30.6,-30.6l0,-289.6c0,-16.9 13.7,-30.6 30.6,-30.6l43.1,0c16.9,0 30.6,13.7 30.6,30.6l0,289.7c0,16.8 -13.7,30.5 -30.6,30.5z" stroke="#000000" stroke-miterlimit="10" id="svg_1"/>
   <path class="st0" d="m244.1,525.39998l-43.1,0c-16.9,0 -30.6,-13.7 -30.6,-30.6l0,-289.6c0,-16.9 13.7,-30.6 30.6,-30.6l43.1,0c16.9,0 30.6,13.7 30.6,30.6l0,289.7c0,16.8 -13.7,30.5 -30.6,30.5z" stroke="#000000" stroke-miterlimit="10" id="svg_2"/>
  </g>
  <g id="Layer_2">
   <g id="svg_2">
    <image x="-664" y="-190.5" id="svg_3" transform="matrix(1 0 0 1 277 -205)" xlink:href="D7887273.png" height="1491" width="1374"/>
   </g>
  </g>
 </g>

</svg>