<svg width="700" height="900" xmlns="http://www.w3.org/2000/svg" xml:space="preserve" version="1.1">
 <g>
  <title>Layer 1</title>
  <path id="svg_1" stroke-miterlimit="10" stroke="#000000" fill="#000000" d="m452.66667,611.73333l-43.1,0c-16.9,0 -30.6,-13.7 -30.6,-30.6l0,-289.6c0,-16.9 13.7,-30.6 30.6,-30.6l43.1,0c16.9,0 30.6,13.7 30.6,30.6l0,289.7c0,16.8 -13.7,30.5 -30.6,30.5z" class="st0"/>
  <path id="svg_2" stroke-miterlimit="10" stroke="#000000" fill="#000000" d="m297.76667,611.73333l-43.1,0c-16.9,0 -30.6,-13.7 -30.6,-30.6l0,-289.6c0,-16.9 13.7,-30.6 30.6,-30.6l43.1,0c16.9,0 30.6,13.7 30.6,30.6l0,289.7c0,16.8 -13.7,30.5 -30.6,30.5z" class="st0"/>
 </g>

</svg>